<svg xmlns="http://www.w3.org/2000/svg" xmlns:xlink="http://www.w3.org/1999/xlink" x="0px" y="0px" enable-background="new 0 0 400 300" version="1.1" viewBox="0 0 400 300" xml:space="preserve">
    <g opacity="0.025">
        <rect width="400" height="300"/>
    </g>
    <g opacity="0.1">
        <g>
            <path d="M173.7,128l-6.1-55.7l-84.3,9.2l6.1,55.7l-6,0.7l0.5,4.6l4.7,5.5l86.8-9.5l3.4-6.4l-0.5-4.6
			C178.2,127.6,173.7,128,173.7,128z M164.9,75.7l0.7,6l-79.8,8.7l-0.7-6L164.9,75.7z M86,91.9l79.8-8.7l4.9,45.2l-79.8,8.7L86,91.9
			z M177.2,132.3l-2.4,4.8l-84.6,9.3l-3.4-4.1l-0.2-1.6l2.9-0.3l87.5-9.6L177.2,132.3z"/>
            <polygon points="138.4,103.9 147.1,109.7 139.8,117.1 141.3,118.7 150.6,109.3 139.5,102 		"/>
            <polygon points="116,104.6 106.7,114.1 117.8,121.3 118.9,119.4 110.2,113.7 117.5,106.2 		"/>
            <rect width="33.3" height="2.2" x="112.1" y="110.5" transform="matrix(0.343 -0.9394 0.9394 0.343 -20.2504 194.2551)"/>
            <rect width="1.5" height="1.5" x="88.4" y="85.5" transform="matrix(0.9941 -0.1088 0.1088 0.9941 -8.8521 10.2074)"/>
            <rect width="1.5" height="1.5" x="98.9" y="84.3" transform="matrix(0.9941 -0.1088 0.1088 0.9941 -8.6642 11.3469)"/>
            <rect width="1.5" height="1.5" x="92.9" y="85" transform="matrix(0.9941 -0.1088 0.1088 0.9941 -8.7716 10.6957)"/>
        </g>
        <g transform="translate(-1.000000, 0.000000)">
            <path d="M208.1,197.4c0,0.1,0.1,0.2,0.1,0.2c0,0.1,0.1,0.2,0.2,0.2c0.1,0.1,0.1,0.1,0.2,0.2c0,0,0.1,0.1,0.1,0.1l58.7,34.1
				c0,0,0.1,0,0.1,0c0,0,0.1,0,0.1,0.1c0.3,0.1,0.7,0.1,1,0c0,0,0.1,0,0.1-0.1c0,0,0.1,0,0.1-0.1l50.9-30.6c0,0,0.1-0.1,0.1-0.1
				c0.1-0.1,0.2-0.1,0.2-0.2c0.1-0.1,0.2-0.3,0.3-0.5c0-0.1,0.1-0.2,0.1-0.3c0-0.1,0-0.1,0-0.2l0-11.9l0,0l0,0c0-0.2,0-0.3-0.1-0.5
				c0,0,0-0.1,0-0.1c-0.1-0.2-0.2-0.3-0.3-0.4l0,0c-0.1-0.1-0.2-0.2-0.3-0.2l-58.7-34.1c-0.5-0.3-1-0.3-1.5,0l-50.9,30.6
				c-0.1,0.1-0.2,0.1-0.3,0.2c0,0,0,0,0,0c-0.1,0.1-0.2,0.3-0.3,0.4c0,0,0,0.1,0,0.1c-0.1,0.2-0.1,0.3-0.1,0.5l0,0l0,11.9
				c0,0.1,0,0.1,0,0.2C208,197.2,208.1,197.3,208.1,197.4z M233.7,171.7l29.7-0.1l3.1,18.2l-10.6,0.6c-0.4,0-0.7,0.4-0.7,0.8
				s0.4,0.7,0.8,0.7l16.9-1l3.9,17.7l-53.1-30.8L233.7,171.7z M317,191.4l0,8.2l-36.3,21.8v-8.2L317,191.4z M278.9,222.5l-9.1,5.4
				l0-8.1l9.1-5.5V222.5z M268,220l0,8.5l-56.3-32.7l0-8.5L268,220z M260.5,157.2l55.5,32.2l-36.9,22.1l-0.6-0.4l-4.3-19.7
				c-0.1-0.4-0.4-0.6-0.8-0.6l-5.5,0.3l-3.3-18.9c-0.1-0.4-0.4-0.6-0.7-0.6h0l-27.8,0.1L260.5,157.2z M222.2,179.4l55.5,32.2
				l-9.4,5.7l-55.5-32.2L222.2,179.4z"/>
            <path d="M288.5,193c1.6,0.9,3.4,1.3,5.2,1.3c2.1,0,4.1-0.5,5.9-1.5c1.5-0.7,2.5-2.2,2.6-3.9c-0.1-1.5-1-2.9-2.4-3.5
				c-3.5-1.7-7.6-1.7-11.1,0.3c-1.5,0.7-2.5,2.2-2.6,3.9C286.2,191,287.1,192.3,288.5,193z M289.5,186.9c3-1.6,6.5-1.7,9.6-0.2
				c0.9,0.4,1.5,1.3,1.6,2.2c-0.1,1.1-0.9,2.1-1.9,2.6c-3,1.6-6.5,1.7-9.6,0.2c-0.9-0.4-1.5-1.3-1.6-2.2
				C287.7,188.3,288.5,187.4,289.5,186.9L289.5,186.9z"/>
        </g>
    </g>
</svg>
