<svg xmlns="http://www.w3.org/2000/svg" xmlns:xlink="http://www.w3.org/1999/xlink" x="0px" y="0px" style="enable-background:new 0 0 2234 393" version="1.1" viewBox="0 0 2234 393" xml:space="preserve">
  <style type="text/css">
    .st0{fill:#425B9C;} .st1{fill:#364966;}
  </style>
    <g>
      <g id="Logo_RD_Station_18_">
          <g>
              <g>
                  <path d="M0.5,49.4c17.1-2.8,42.7-4.9,71-4.9c35,0,59.5,5.2,76.3,18.5c14,11.2,21.7,27.6,21.7,49.3
            c0,30.1-21.3,50.7-41.6,58.1v1c16.4,6.6,25.5,22.4,31.5,44.1c7.4,26.6,14.7,57.4,19.2,66.5H124c-3.8-6.6-9.4-25.9-16.4-54.9
            c-6.3-29.4-16.4-37.4-38.1-37.8H53.3V282H0.5V49.4z M53.3,150.8h21c26.6,0,42.3-13.3,42.3-33.9c0-21.7-14.7-32.5-39.2-32.9
            c-12.9,0-20.3,1.1-24.1,1.7V150.8z" class="st0"/>
                  <path d="M197.7,49.4c19.6-3.1,45.1-4.9,72.1-4.9c44.8,0,73.8,8,96.5,25.2c24.5,18.2,39.9,47.2,39.9,88.8
            c0,45.1-16.4,76.3-39.2,95.5c-24.8,20.6-62.6,30.4-108.8,30.4c-27.6,0-47.2-1.7-60.5-3.5V49.4z M251.2,241.8
            c4.5,1.1,11.9,1.1,18.5,1.1c48.3,0.3,79.7-26.2,79.7-82.6c0.3-49-28.3-74.9-74.2-74.9c-11.9,0-19.6,1-24.1,2.1V241.8z" class="st0"/>
                  <path d="M478.9,245.3c13.5,8.3,33.3,15.3,54.1,15.3c30.9,0,48.9-16.3,48.9-39.9c0-21.8-12.5-34.3-44-46.5
            c-38.1-13.5-61.7-33.3-61.7-66.2c0-36.4,30.2-63.4,75.6-63.4c23.9,0,41.3,5.5,51.7,11.4L595,80.6
            c-7.6-4.2-23.2-11.1-44.4-11.1c-31.9,0-44,19.1-44,35c0,21.8,14.2,32.6,46.5,45.1c39.5,15.3,59.6,34.3,59.6,68.6
            c0,36.1-26.7,67.3-81.8,67.3c-22.5,0-47.1-6.6-59.6-14.9L478.9,245.3z" class="st0"/>
                  <path d="M673.6,73.9v38.8h44.1v23.4h-44.1v91.3c0,21,5.9,32.9,23.1,32.9c8,0,14-1.1,17.8-2.1l1.4,23.1
            c-5.9,2.5-15.4,4.2-27.3,4.2c-14.3,0-25.9-4.5-33.2-12.9c-8.7-9.1-11.9-24.1-11.9-44.1v-92.3h-26.2v-23.4h26.2V82L673.6,73.9z
            " class="st0"/>
                  <path d="M933.2,73.9v38.8h44.1v23.4h-44.1v91.3c0,21,6,32.9,23.1,32.9c8,0,14-1.1,17.8-2.1l1.4,23.1
            c-6,2.5-15.4,4.2-27.3,4.2c-14.3,0-25.9-4.5-33.2-12.9c-8.7-9.1-11.9-24.1-11.9-44.1v-92.3h-26.2v-23.4h26.2V82L933.2,73.9z" class="st0"/>
                  <path d="M840.4,282l-2.5-21.3h-1c-9.4,13.3-27.6,25.2-51.8,25.2c-34.3,0-51.8-24.1-51.8-48.6
            c0-40.9,36.4-63.3,101.8-63v-3.5c0-14-3.9-39.2-38.5-39.2c-15.7,0-32.2,4.9-44.1,12.6l-7-20.3c14-9.1,34.3-15,55.6-15
            c51.8,0,64.4,35.3,64.4,69.3v63.3c0,14.7,0.7,29,2.8,40.6H840.4z M835.9,195.6c-33.6-0.7-71.7,5.2-71.7,38.1
            c0,19.9,13.3,29.4,29,29.4c22,0,36-14,40.9-28.3c1.1-3.1,1.7-6.6,1.7-9.8V195.6z" class="st0"/>
                  <path d="M1038,65.2c0.3,10.5-7.4,18.9-19.6,18.9c-10.8,0-18.5-8.4-18.5-18.9c0-10.8,8-19.2,19.2-19.2
            C1030.6,45.9,1038,54.3,1038,65.2 M1003.7,112.7h30.8V282h-30.8V112.7z" class="st0"/>
                  <path d="M1223.1,196c0,62.6-43.4,89.9-84.3,89.9c-45.8,0-81.1-33.6-81.1-87.1c0-56.7,37.1-89.9,83.9-89.9
            C1190.2,108.9,1223.1,144.2,1223.1,196 M1088.8,197.7c0,37.1,21.3,65.1,51.4,65.1c29.4,0,51.4-27.6,51.4-65.8
            c0-28.7-14.3-65.1-50.7-65.1C1104.5,132,1088.8,165.5,1088.8,197.7" class="st0"/>
                  <path d="M1243.5,158.5c0-17.5-0.4-31.8-1.4-45.8h27.3l1.7,28h0.7c8.4-16.1,28-31.8,56-31.8
            c23.4,0,59.8,14,59.8,72.1V282h-30.8v-97.6c0-27.3-10.1-50-39.2-50c-20.3,0-36,14.3-41.3,31.5c-1.4,3.8-2.1,9.1-2.1,14.3V282
            h-30.8V158.5z" class="st0"/>
              </g>
          </g>
      </g>
      <rect width="9.2" height="393" x="1595.6" class="st1"/>
      <g>
          <path d="M1909.5,276.1c-7.8,3.9-23.4,7.8-43.3,7.8c-46.2,0-81.1-29.2-81.1-83c0-51.4,34.8-86.2,85.7-86.2
    c20.4,0,33.3,4.4,38.9,7.3l-5.1,17.3c-8-3.9-19.5-6.8-33.1-6.8c-38.5,0-64,24.6-64,67.7c0,40.2,23.1,66,63,66
    c12.9,0,26-2.7,34.6-6.8L1909.5,276.1z" class="st1"/>
          <path d="M1937.7,119.6c10.7-2.2,26-3.4,40.7-3.4c22.6,0,37.2,4.1,47.5,13.4c8.3,7.3,12.9,18.5,12.9,31.2
    c0,21.7-13.6,36-30.9,41.9v0.7c12.7,4.4,20.2,16.1,24.1,33.1c5.4,22.9,9.2,38.7,12.7,45h-21.9c-2.7-4.6-6.3-18.7-11-39.2
    c-4.9-22.6-13.6-31.2-32.9-31.9h-20v71.1h-21.2V119.6z M1958.9,194.3h21.7c22.6,0,37-12.4,37-31.2c0-21.2-15.3-30.4-37.7-30.7
    c-10.2,0-17.5,1-20.9,1.9V194.3z" class="st1"/>
          <path d="M2208.6,209.4c-1.2-22.9-2.7-50.4-2.4-70.8h-0.7c-5.6,19.2-12.4,39.7-20.7,62.3l-29,79.6h-16.1l-26.5-78.1
    c-7.8-23.1-14.4-44.3-19-63.8h-0.5c-0.5,20.4-1.7,47.9-3.2,72.5l-4.4,70.3H2066l11.4-164.1h27l28,79.4
    c6.8,20.2,12.4,38.2,16.6,55.3h0.7c4.1-16.5,10-34.6,17.3-55.3l29.2-79.4h27l10.2,164.1h-20.7L2208.6,209.4z" class="st1"/>
      </g>
  </g>
</svg>
