
<svg width="205px" height="429px" viewBox="0 0 205 429" version="1.1" xmlns="http://www.w3.org/2000/svg" xmlns:xlink="http://www.w3.org/1999/xlink">
  <g id="mage" fill="#312933" fill-rule="nonzero" stroke="#3D2E40">
    <path d="M28.7835821,0 L39.8930348,0 C43.3268657,4.67738516 43.6803483,8.19799764 40.9029851,11.5174323 C36.8126866,16.4462898 32.8738806,21.3751472 30.1975124,27.2093051 C29.8945274,27.963722 28.9350746,28.6678445 29.5915423,29.4222615 C30.24801,30.1766784 31.1569652,29.5228504 31.9649254,29.3216726 C38.1761194,27.7625442 44.6902985,33.4458186 45.0437811,38.7770318 C45.4727752,44.70566 45.0648219,50.6649158 43.8318408,56.4806832 C43.2763682,58.9954064 41.9634328,61.3592462 42.3169154,63.9745583 C42.8218905,68.1489988 43.9833333,72.2731449 42.6199005,76.4978799 C42.3169154,77.5037691 42.5189055,78.6605418 41.9129353,79.6664311 C41.6224454,80.2072842 41.7484391,80.876549 42.2159204,81.2758539 C44.7912935,83.7905771 44.9932836,86.7076561 43.6803483,89.9265018 C43.2258706,90.9826855 43.0743781,92.0891637 44.2358209,93.095053 C45.349715,94.0350567 45.9953785,95.4130581 46.0032338,96.8671378 C46.4577114,103.65689 47.2656716,110.446643 48.0736318,117.186101 C48.3261194,119.449352 48.3261194,121.762898 49.2855721,123.824971 C50.7109068,126.960828 51.3354184,130.399109 51.1034826,133.833569 C50.9855657,136.088447 51.625209,138.318197 52.921393,140.170671 C54.7202304,142.793793 55.8471278,145.815548 56.2037313,148.972203 C56.4562189,151.134865 56.759204,153.498704 57.9711443,155.409894 C59.6375622,158.17609 60.3950249,161.193757 60.799005,164.362309 C61.3544776,168.939105 61.4049751,173.515901 62.768408,177.941814 C63.8288557,181.462426 64.7378109,185.033333 65.8487562,188.553946 C66.6567164,191.169258 67.6161692,193.78457 68.5756219,196.500471 C69.5966698,195.809137 70.359974,194.801384 70.7470149,193.633687 C72.4248164,189.366302 74.6664615,185.3408 77.4126866,181.663604 C78.6246269,179.953592 79.1800995,178.142992 79.7355721,176.231802 C80.2910448,174.320612 78.4226368,169.442049 83.6743781,169.542638 C83.7448587,169.517233 83.8003627,169.461952 83.8258706,169.391755 C85.8962687,166.172909 88.8756219,163.507303 88.7241294,159.232273 C88.5726368,152.191048 88.5221393,145.200118 89.7340796,138.209187 C89.9360697,136.951826 89.4310945,135.996231 88.0171642,135.945936 C83.6238806,135.744759 79.8870647,133.481508 75.7967662,132.375029 C74.2427447,132.01157 72.7701225,131.363493 71.4539801,130.46384 C70.949005,130.061484 70.4440299,129.759717 70.5955224,129.055595 C70.7470149,128.351472 71.3529851,128.301178 71.9589552,128.250883 C74.8137926,128.051792 77.5179095,126.900076 79.6345771,124.981743 C82.3614428,122.567609 82.2099502,122.265842 79.7860697,119.65053 C75.4432836,114.872556 70.1410448,110.899293 66.3537313,105.56808 C65.8487562,104.863958 65.040796,104.21013 65.8487562,103.455713 C66.6567164,102.701296 67.4141791,103.455713 68.0706468,104.059246 C68.7271144,104.66278 70.6460199,106.775147 72.2114428,107.680448 C75.291791,109.491048 78.2711443,111.854888 82.2604478,111.502827 C84.3813433,111.351943 84.4318408,110.647821 83.4723881,108.988104 C82.5129353,107.328386 80.5435323,105.065135 80.1900498,102.550412 C80.1395522,102.047468 79.3820896,101.443934 80.2910448,101.041578 C81.2,100.639223 81.40199,101.091873 81.8564677,101.544523 C83.2199005,102.952768 84.4823383,104.361013 85.9467662,105.668669 C87.5160475,107.158366 89.6674514,107.878877 91.8216131,107.636174 C93.9757749,107.39347 95.9112111,106.212505 97.1067164,104.411307 C99.328607,101.041578 99.530597,101.091873 101.651493,104.612485 C101.954478,105.11543 102.206965,105.668669 102.459453,106.171614 C102.71194,106.674558 102.560448,107.579859 103.31791,107.529564 C104.11178,107.430171 104.713085,106.767117 104.731841,105.970436 C104.630846,102.902473 106.347761,99.8848057 105.388308,96.8168433 C104.428856,93.748881 103.469403,92.1394582 102.812935,89.7253239 C102.210885,87.2067085 100.833795,84.9383709 98.8741294,83.237338 C96.6522388,81.3764429 96.5007463,79.2137809 98.0661692,76.6487633 C99.631592,74.0837456 100.540547,71.5187279 101.600995,68.8531213 C103.570398,63.9242638 106.802239,60.252768 112.003483,58.4924617 C117.204726,56.7321555 121.093035,56.7824499 125.536816,58.4924617 C129.980597,60.2024735 134.373881,63.8236749 136.393781,68.9034158 C137.555224,71.8204947 139.171144,74.4861013 139.272139,77.9061249 C139.322637,79.9179034 139.272139,82.3320377 140.332587,84.2432273 C141.803286,86.7979341 143.999348,88.8626809 146.644776,90.1779741 C150.785572,92.2903416 152.704478,95.8109541 153.209453,100.287161 C153.360945,101.544523 153.562935,102.449823 154.926368,101.242756 C156.289801,100.035689 156.946269,100.337456 158.158209,100.337456 C157.703731,101.343345 156.845274,102.198351 156.946269,102.952768 C157.299751,105.366902 160.885075,104.763369 161.39005,107.328386 C161.491045,107.93192 162.60199,107.680448 163.157463,107.278092 C164.975373,105.970436 167.045771,104.964547 168.611194,103.254535 C169.747768,102.021896 170.962177,100.862767 172.247015,99.7842167 C172.545743,99.5071441 172.953401,99.3779563 173.35796,99.4321555 C174.014428,99.7339223 173.610448,100.287161 173.408458,100.689517 C172.824221,102.084468 172.041947,103.388662 171.085572,104.562191 C168.611194,107.630153 166.237811,110.74841 163.20796,113.313428 C162.349502,114.067845 161.743532,115.224617 163.308955,115.47609 C164.874378,115.727562 167.399254,115.979034 169.015174,114.369611 C169.671642,113.715783 170.378607,112.408127 171.13607,113.363722 C171.893532,114.319317 170.782587,115.274912 169.772637,115.828151 C169.391255,115.997631 169.034559,116.217555 168.712189,116.481979 C167.399254,117.689046 166.591294,118.896113 168.308209,120.55583 C169.698138,121.725351 170.701329,123.285438 171.186567,125.032038 C171.54005,126.339694 172.499502,127.496466 173.458955,128.602945 C176.842289,132.676796 180.932587,136.046525 185.073383,139.718021 C183.30597,139.81861 181.89204,142.534511 180.074129,139.768316 C179.771144,139.315665 178.963184,139.667727 178.407711,139.81861 C176.943284,140.220966 175.478856,140.522733 174.014428,140.975383 C172.55,141.428033 171.94403,142.584806 173.206468,144.143934 C175.529353,146.960424 177.094776,150.078681 177.145274,153.699882 C177.144613,157.857296 177.448404,162.009221 178.054229,166.122615 C178.710697,170.749706 178.912687,175.427091 180.781095,179.752415 C181.261732,180.826991 181.368365,182.03064 181.08408,183.172438 C180.074129,187.648645 176.438308,190.06278 173.256965,192.527208 C171.792537,193.633687 169.267662,193.683981 166.995274,192.225442 C164.722886,190.766902 162.60199,188.352768 160.026617,186.994817 C157.451244,185.636867 156.087811,183.42391 153.512438,184.580683 C150.937065,185.737456 149.523134,188.503651 149.169652,191.471025 C148.816169,194.438398 148.109204,198.51225 148.816169,202.284335 C150.129104,209.174676 149.977612,216.266196 151.896517,223.156537 C154.118408,231.052768 154.370896,239.250766 154.724378,247.398469 C154.976866,253.987044 155.734328,260.525324 156.441294,267.063604 C157.148259,273.601885 157.855224,279.033687 158.158209,285.018728 C158.259204,287.835218 158.764179,290.601413 159.016667,293.417903 C159.420647,298.397055 160.834577,303.175029 161.642537,308.103887 C163.40995,318.363958 165.581343,328.42285 171.641045,337.123793 C174.16592,340.795289 176.690796,344.366196 180.629602,346.830624 C188.507214,351.860071 196.637313,356.58775 203,363.628975 L203,376.705536 C202.444527,377.560542 202.646517,379.169965 201.131592,379.019081 C197.849254,378.66702 194.617413,379.220259 191.335075,379.371143 C183.204975,379.723204 175.074876,379.11967 166.894279,378.868198 C165.025871,378.817903 163.106965,378.264664 161.895025,376.806125 C159.875124,374.391991 157.451244,373.536985 154.370896,373.838751 C152.85597,373.93934 150.987562,374.49258 149.775622,373.285512 C146.897264,370.469022 143.564428,368.205771 140.787065,365.389282 C138.767164,363.427797 136.848259,362.472203 134.121393,362.773969 C132.858955,362.924853 131.647015,362.874558 130.384577,363.126031 C125.940796,363.981037 125.839801,364.534276 127.001244,368.8596 C127.607214,370.971967 129.374627,373.03404 128.415174,375.498469 C127.988545,376.494462 127.988545,377.620733 128.415174,378.616726 C128.970647,380.075265 129.021144,381.684688 129.374627,383.193522 C130.031095,386.21119 129.475622,389.379741 131.041045,392.246525 C132.606468,395.11331 133.36393,398.080683 135.636318,400.645701 C138.767164,404.166313 138.767164,408.944287 137.100746,412.967845 C136.040299,415.633451 135.636318,419.958775 130.53607,419.506125 C128.970647,419.355241 128.162687,418.500236 127.051741,417.946996 C120.99204,414.82874 118.113682,409.849588 117.911692,403.009541 C117.760199,398.332155 119.275124,393.705065 118.063184,389.077974 C117.154229,385.607656 118.467164,381.48351 114.780846,378.868198 C114.477861,378.616726 114.578856,377.912603 114.427363,377.409658 C113.518408,374.391991 113.871891,371.223439 112.811443,368.105183 C111.750995,364.986926 109.6301,365.992815 107.711194,365.791637 C105.792289,365.590459 105.135821,366.898115 104.731841,368.507538 C103.31791,374.241107 102.50995,380.024971 100.540547,385.708245 C97.561194,394.358893 96.4502488,403.56278 96.0967662,412.766667 C95.9452736,417.64523 92.1074627,423.227915 87.4616915,424.887633 C86.3002488,425.239694 85.7447761,425.843227 85.8457711,427 L84.3308458,427 C83.8258706,426.698233 83.371393,426.195289 82.8159204,426.144994 C80.7960199,425.943816 80.0890547,424.585866 79.129602,423.026737 C76.8572139,419.405536 77.6651741,415.28139 76.7562189,411.509305 C76.2512438,409.598115 77.059204,407.938398 78.0691542,406.178092 C79.0791045,404.417786 81.099005,403.512485 81.9069652,401.701885 C84.3813433,396.521555 86.8557214,391.341225 87.7141791,385.557362 C87.9161692,384.249706 88.7241294,382.841461 88.0676617,381.634393 C86.5022388,378.767609 87.5121891,376.051708 88.6231343,373.48669 C89.7340796,370.921673 89.7340796,369.362544 89.9865672,367.199882 C90.1380597,366.04311 89.7340796,365.48987 88.6736318,365.238398 L83.3208955,363.830153 C76.4027363,362.120141 69.8885572,359.052179 62.9199005,357.392462 C61.9604478,357.140989 61.1524876,357.090695 60.3950249,357.794817 C59.6375622,358.49894 59.5365672,359.102473 58.7791045,358.49894 C58.0216418,357.895406 58.6781095,357.241578 58.7791045,356.58775 C60.4960199,347.082097 64.7883085,338.381154 67.8686567,329.277856 C70.3297532,321.945516 72.2702742,314.44993 73.6758706,306.846525 C74.7868159,300.911779 75.5947761,294.876443 76.4532338,288.891402 C77.0256963,285.361043 77.3966073,281.801182 77.5641791,278.228975 C77.7156716,270.584217 75.0393035,263.291519 74.3323383,255.74735 C73.9283582,251.47232 71.6054726,247.700236 71.25199,243.425206 C70.4945274,235.528975 65.6467662,229.091284 63.2733831,221.798587 L62.5664179,221.647703 C62.1119403,223.30742 61.5059701,224.967138 59.5870647,225.570671 C57.6681592,226.174205 57.7186567,225.369494 58.0721393,224.263015 C58.829602,221.798587 59.2335821,218.931802 60.799005,217.070907 C64.2328358,212.946761 64.4348259,208.923204 62.1119403,204.396702 C62.0374117,204.167769 61.9866487,203.931827 61.9604478,203.69258 C59.4355721,193.533098 56.860199,183.42391 54.4363184,173.264429 C53.3253731,168.687633 51.1539801,164.563486 49.0835821,160.389046 C48.0736318,158.276678 46.811194,156.164311 46.8616915,153.850766 C46.9626866,146.759246 42.8723881,140.824499 41.5089552,134.18563 C41.4406113,133.863946 41.2831724,133.567758 41.0544776,133.330624 C37.0146766,130.162073 36.661194,125.685866 36.7116915,121.058775 C36.7116915,119.952297 36.6106965,118.896113 35.7017413,118.091402 C32.9748756,115.828151 32.419403,112.810483 32.6718905,109.491048 C32.6567128,108.326176 32.5384271,107.164905 32.318408,106.02073 C32.0659204,104.411307 31.6619403,104.260424 30.24801,104.914252 C27.6726368,106.121319 25.8042289,105.668669 24.4912935,103.757479 C23.1783582,101.84629 23.3803483,99.5327444 25.1982587,97.6215548 C27.0161692,95.7103651 26.6121891,94.8553592 24.1883085,94.0506478 C23.2793532,93.748881 22.3199005,93.5979976 21.5624378,93.1453475 C19.3910448,91.9382803 17.4216418,90.4797409 17.0681592,87.8141343 C16.6136816,84.1426384 16.7146766,84.1426384 13.0788557,83.6396938 L11.3114428,83.6396938 C6.16069652,83.237338 2.77736318,80.521437 0.807960199,75.7937574 C0.353482587,74.7375736 0.959452736,73.4299176 0,72.4743227 L0,69.4566549 C0.757462687,63.6727915 2.8278607,58.1906949 4.09029851,52.5074205 C4.34278607,51.5015312 4.49427861,50.5459364 3.93880597,49.5903416 C0.605970149,44.2088339 1.11094527,38.3746761 1.71691542,32.5405183 C2.07039801,28.7684335 4.09029851,25.4489988 5.60522388,22.0289753 C9.14004975,13.9315665 13.8868159,6.78975265 22.5723881,3.16855124 C24.7437811,2.31354535 26.7131841,1.05618375 28.7835821,0 Z M19.6435323,64.2260306 C18.4820896,61.1580683 17.1186567,57.8386337 14.9977612,54.9718492 C14.1393035,53.8150766 12.6748756,53.5636042 11.8669154,55.4244994 C9.79651741,60.2024735 7.77661692,64.9804476 7.27164179,70.1607774 C6.96865672,73.4299176 8.73606965,75.5925795 11.9679104,75.7434629 C14.391791,75.8943463 16.8156716,75.8440518 19.2395522,76.1961131 C21.6634328,76.5481743 22.0169154,74.888457 21.5624378,72.9772674 C20.9059701,70.2110718 18.6840796,67.7466431 19.6435323,64.2260306 Z M77.6146766,240.809894 C77.8166667,240.407538 78.0186567,240.20636 78.0186567,240.005183 C77.9681592,231.706596 78.9781095,223.508598 79.028607,215.260306 C78.9915974,209.412307 79.8602631,203.593596 81.6039801,198.009305 C81.9574627,196.902827 82.5634328,195.293404 81.6039801,194.790459 C80.6445274,194.287515 79.7860697,195.746054 78.9781095,196.550766 C78.1701493,197.355477 78.6246269,197.104005 78.4226368,197.355477 C76.3522388,199.669022 75.7967662,202.736985 74.6353234,205.452886 C72.6659204,210.23086 70.6460199,214.958539 75.5442786,219.283863 C76.1502488,219.837102 76.6552239,221.295642 75.6957711,221.295642 C72.8174129,221.345936 73.8778607,223.257126 73.9788557,224.464193 C74.256918,227.106894 74.7124153,229.728074 75.3422886,232.31013 C76.0997512,235.076325 75.9987562,238.043698 77.6146766,240.809894 Z M179.922637,137.45477 C179.821642,137.253592 179.720647,136.901531 179.468159,136.750648 C176.185821,134.738869 173.76194,131.620612 170.5301,129.659128 C168.813184,128.602945 166.843781,129.608834 165.480348,130.765607 C164.116915,131.922379 165.227861,133.330624 165.732836,134.63828 C166.237811,135.945936 167.752736,136.09682 168.560697,137.00212 C170.681592,139.265371 173.206468,138.863015 175.832338,138.360071 C176.892786,138.158893 177.852239,137.253592 179.013682,138.309776 C180.175124,139.36596 179.922637,138.209187 179.922637,137.45477 Z M151.290547,245.83934 C151.492537,242.218139 150.43209,238.798115 149.826119,235.327797 C148.361692,226.626855 145.533831,218.277974 143.008955,209.828504 C141.89801,206.106714 141.09005,202.23404 143.31194,198.461955 C143.665423,197.908716 144.220896,196.852532 143.261443,196.550766 C142.30199,196.248999 142.30199,197.355477 142.049502,198.0596 C140.383085,202.636396 140.787065,207.364075 142.251493,211.789988 C145.288121,221.18886 147.750178,230.76235 149.624129,240.457833 C149.977612,242.268433 149.977612,244.229918 151.290547,245.83934 Z M17.0681592,16.798351 C18.9870647,16.5468787 20.6534826,15.8930506 22.2189055,16.144523 C27.6726368,17.0498233 28.3291045,14.7865724 31.2579602,9.80742049 C31.5609453,9.25418139 31.9649254,8.44946996 31.4094527,7.89623086 C30.8255041,7.52028825 30.0744959,7.52028825 29.4905473,7.89623086 C27.3696517,8.95241461 25.2487562,9.90800942 23.2288557,11.165371 C21.2089552,12.4227326 18.4820896,13.8812721 17.0681592,16.798351 Z M102.610945,149.022497 C102.762438,148.26808 102.762438,147.36278 101.752488,147.36278 C100.742537,147.36278 100.944527,148.26808 100.995025,148.921908 C101.247512,150.833098 100.439552,152.54311 100.28806,154.404005 C99.7830846,159.936396 99.5810945,165.519081 96.8542289,170.649117 C96.7170343,170.951355 96.6316887,171.274364 96.6017413,171.604711 C96.5007463,172.007067 96.4502488,172.510012 96.9552239,172.660895 C97.2780736,172.667504 97.5891112,172.539944 97.8136816,172.308834 C99.2276119,170.950883 100.439552,169.592933 101.045522,167.631449 C102.91393,161.545819 103.166418,155.309305 102.610945,149.022497 Z M161.79403,166.273498 C160.78408,170.146172 161.743532,173.465607 161.895025,176.785041 C162.248507,183.373616 167.500249,186.2404 172.14602,189.358657 C172.701493,188.403062 172.701493,188.403062 174.620398,187.749234 C175.478856,187.497762 176.640299,187.145701 176.337313,185.988928 C176.034328,184.832155 174.973881,185.485984 174.216418,185.687161 C169.570647,186.743345 167.550746,185.636867 165.480348,181.16066 C163.914925,177.690342 163.510945,173.968551 163.106965,170.246761 C163.00597,168.989399 163.00597,167.782332 161.79403,166.273498 Z M154.774876,266.862426 C154.825373,266.108009 154.875871,265.705654 154.875871,265.303298 C155.128358,259.92179 153.209453,254.842049 152.401493,249.611425 C152.300498,249.007892 152.502488,247.951708 151.543035,248.152886 C150.583582,248.354064 150.83607,249.259364 151.03806,250.013781 C151.838317,253.035186 152.4122,256.111607 152.754975,259.217668 C153.05796,261.631802 152.149005,264.448292 154.774876,266.862426 Z M37.2166667,43.9070671 C36.9509477,42.8497858 36.5787458,41.8219209 36.1057214,40.8391048 C35.6108853,40.127675 34.7303885,39.788851 33.8838308,39.9840989 C33.4623567,40.1034044 33.1863288,40.5052076 33.2273632,40.9396938 C33.5303483,43.5047114 33.7828358,46.0194346 34.0858209,48.5844523 C34.1804962,48.9858052 34.4359453,49.331092 34.7927861,49.5400471 C35.2472637,49.6909305 35.4492537,49.1376914 35.7017413,48.8359246 C36.7621891,47.4276796 36.661194,45.7176678 37.2166667,43.9070671 Z M143.412935,178.293875 L143.412935,177.690342 C143.31194,176.935925 143.614925,175.829446 142.756468,175.728857 C141.89801,175.628269 141.69602,176.835336 141.544527,177.539458 C141.095533,179.677117 140.238373,181.708955 139.019652,183.524499 C138.514677,184.278916 138.312687,184.832155 139.019652,185.435689 C139.726617,186.039223 140.534577,185.636867 140.989055,185.033333 C142.453483,183.172438 143.614925,181.16066 143.412935,178.293875 Z M97.6621891,378.516137 C97.667601,379.409143 98.1481152,380.232304 98.9246269,380.678799 C99.429602,380.930271 99.9850746,380.879976 100.187065,380.326737 C100.742537,378.66702 101.399005,377.057597 101.651493,375.347585 C101.802985,374.391991 101.045522,373.48669 99.8335821,373.386101 C98.6216418,373.285512 98.2681592,373.989635 98.1166667,374.995524 C97.9651741,376.001413 97.8136816,377.258775 97.6621891,378.516137 Z M144.927861,188.906007 C141.342537,190.817197 137.807711,192.979859 133.919403,194.23722 C133.716304,194.313396 133.555767,194.472677 133.478508,194.674667 C133.401249,194.876656 133.41469,195.101949 133.515423,195.293404 C133.649778,195.609974 133.981981,195.796087 134.323383,195.746054 C135.154317,195.766666 135.980267,195.612423 136.747264,195.293404 C139.575124,193.985748 141.89801,191.973969 144.574378,190.465135 C144.978358,190.263958 145.382338,189.811307 144.927861,188.906007 Z" id="Shape"></path>
</g>
</svg>
