<svg id="Layer_1" xmlns="http://www.w3.org/2000/svg" viewBox="0 0 1030 265.5"><style>.st0{fill:#2b2b2b}.st1{fill:#1ddb6d}</style><path class="st0" d="M721.6 196.8c0 33.9-27.5 61.4-61.4 61.4s-61.4-27.5-61.4-61.4 27.5-61.4 61.4-61.4 61.4 27.5 61.4 61.4zm153.5 0c0 33.9-27.5 61.4-61.4 61.4s-61.4-27.5-61.4-61.4 27.5-61.4 61.4-61.4 61.4 27.5 61.4 61.4z"/><path class="st1" d="M903.9 201.8c-2.8-33.8 22.4-63.4 56.2-66.2s63.4 22.4 66.2 56.2c2.8 33.8-22.4 63.4-56.1 66.2-33.9 2.7-63.5-22.4-66.3-56.2z"/><path class="st0" d="M37 109c-14.9 0-24.6-3.8-34-13.1l7.2-7.2c8.2 8.2 15.9 10.9 27 10.9 14.5 0 23.4-6.8 23.4-18.4 0-5.2-1.5-9.6-4.7-12.4s-5.7-3.6-12.9-4.7l-11.5-1.8c-7.8-1.2-13.9-3.8-18.2-7.5-5-4.4-7.5-10.6-7.5-18.5 0-16.8 12.1-28 31.7-28 12.7 0 21 3.2 29.5 10.9L60.2 26c-6.1-5.6-12.7-8.5-23.1-8.5-13.2 0-20.9 7.4-20.9 18.4 0 4.9 1.4 8.8 4.5 11.4s8.2 4.6 13.4 5.4L45 54.4c9.3 1.4 13.9 3.3 18.1 7 5.4 4.6 8.3 11.4 8.3 19.6-.2 17.2-13.8 28-34.4 28zm84.5-90.5v89.6H111V18.5H82.3V9h67.9v9.5h-28.7zm77.3 90.5c-20 0-34.5-13.8-34.5-33.5V9.1h10.6v65.6c0 15 9.5 24.9 23.9 24.9 14.5 0 24.1-9.9 24.1-24.9V9.1h10.6v66.4c-.1 19.7-14.7 33.5-34.7 33.5zm120.5-10.1c-6 6-14.7 9.2-25 9.2h-34V9h34c10.3 0 19.1 3.2 25 9.2 10.3 10.3 9.7 25.5 9.7 39.3 0 13.7.6 31.1-9.7 41.4zm-7.4-73.2c-5.1-5.3-11.8-7.2-19.5-7.2h-21.6v80.2h21.6c7.7 0 14.3-2 19.5-7.2 6.8-7.1 6.5-21.9 6.5-34 .1-12.2.3-24.7-6.5-31.8zm39.4 82.4V9h61.5v9.5h-50.9v34.9h43.4v9.5h-43.4v35.8h50.9v9.5l-61.5-.1zm146.4 0l-52.6-79.5v79.5h-10.6V9h10l52.6 79.2V9h10.6v99.1h-10zm62-90.1v89.8h-10.6V18h-28.7V8.5h67.9V18h-28.6z"/><path class="st1" d="M642.9 107.7h-43.1V8.6h41.1c20.6 0 31.6 11.6 31.6 28.7 0 11.3-7.8 17.5-10.9 19.6 4 2.5 12.2 7.7 12.2 21.6 0 18.9-13.2 29.2-30.9 29.2zm-3.6-77.3h-15.2v16.1h15.2c6.7 0 8.8-4.2 8.8-8.1 0-3.8-2.1-8-8.8-8zm1.2 38h-16.4v17.4h16.4c6.7 0 8.9-4.6 8.9-8.8 0-4.1-2.2-8.6-8.9-8.6zM741.4 108l-4.6-14.7h-30.5l-4.9 14.7H676l36.1-99.1h18.8l36 99.1h-25.5zM722 46.4l-8.9 26.4h17.3L722 46.4zm83.8 62.1c-11.6 0-20.3-3.9-27.6-11.1-10.4-10.4-10-24.4-10-39.2 0-14.9-.4-28.8 10-39.3 7.2-7.2 16-11.1 27.6-11.1 18.8 0 34 10.4 37.6 32.3h-24.8c-1.6-5.6-4.6-10.6-12.7-10.6-4.5 0-7.8 1.8-9.6 4.2-2.2 2.9-3.8 6.4-3.8 24.5s1.5 21.6 3.8 24.5c1.8 2.4 5.1 4.2 9.6 4.2 8.1 0 11.1-5 12.7-10.6h24.8c-3.7 21.8-18.9 32.2-37.6 32.2zm105.7-.8l-22.8-40.6-8.3 9.6v31h-24.1V8.6h24.1v35.1l28.7-35.1h29.8L905 48.7l34.9 59h-28.4zm87.2 0l-17.5-36.9H973v36.9h-24.4V8.6h39.3c22 0 33.8 15.6 33.8 31.9 0 13.5-8.3 22-16.1 25.9l21.4 41.3h-28.3zm-11.9-77.3H973v20h13.8c6.7 0 10.6-4.9 10.6-10s-3.9-10-10.6-10z"/><path d="M1009.8 196.1c0-1.8-.9-3.5-2.3-4.3l-30.1-17.3c-1.3-.7-2.8-.7-4 .2s-2 2.4-2 4l-.1 34.8c0 1.7.7 3.2 2 4.1 1.2.9 2.8 1 4 .2l30.2-17.4c1.4-.9 2.3-2.5 2.3-4.3zm-39.7 0c0-1.8-.9-3.5-2.3-4.3l-30.1-17.3c-1.3-.7-2.8-.7-4 .2s-2 2.4-2 4l-.1 34.8c0 1.7.7 3.2 1.9 4.1 1.2.9 2.8 1 4 .2l30.2-17.4c1.5-.9 2.4-2.5 2.4-4.3z" fill="#fff"/></svg>