<svg version="1.1"  xmlns="http://www.w3.org/2000/svg" xmlns:xlink="http://www.w3.org/1999/xlink" x="0px" y="0px" viewBox="0 0 2500 2448" style="enable-background:new 0 0 2500 2448;" xml:space="preserve">
<path style="fill:#F99135;" d="M0,0h2500v2448H0V0z"/>
<rect x="189" y="192" width="2125" height="2066"/>
<polygon style="fill:#F99135;" points="1255,1717 1174,1438 874.3,1438 793.3,1717 587.9,1717 877,730.1 877,622 1152.6,622
	1482.1,1717 "/>
<polygon points="912,1246 1133.6,1246 1022.8,816.3 "/>
<rect x="1579" y="914.5" style="fill:#F99135;" width="181.7" height="802.5"/>
<path style="fill:#F99135;" d="M1669.8,802.8c-52.9,0-96-42.4-96-94.8s42.9-94.8,96-94.8c52.9,0,96,42.4,96,94.8
	S1722.9,802.8,1669.8,802.8z"/>
</svg>
