<svg version="1.1" xmlns="http://www.w3.org/2000/svg" xmlns:xlink="http://www.w3.org/1999/xlink" x="0px" y="0px" viewBox="0 0 676.3 713" style="enable-background:new 0 0 676.3 713;" xml:space="preserve">
<path fill="#CCCCCC" d="M487.3,381.3c-2.2,0.4-4.5,5.4-4.5,8.1c-0.4,18-0.9,65.8-0.9,98.2c0,0.9,1.3,2.7,2.7,2.7c6.8,0.4,23,0.9,36.9,0.9
	c19.4,0,30.6-2.7,37-5.4c16.2-8.1,23.9-25.7,23.9-45.1c0-43.7-30.6-60.4-76.2-60.4C503,379.9,494,379.9,487.3,381.3L487.3,381.3z
	 M603.5,582.7c0-44.6-32.9-69.4-92.4-69.4c-2.7,0-21.6-0.4-26.1,0.4c-1.4,0.5-3.1,1.4-3.1,2.7c0,32-0.5,82.9,0.9,102.7
	c0.9,8.6,7.2,20.7,14.9,24.3c8.1,4.5,26.6,5.4,39.2,5.4C572.4,648.9,603.5,629.1,603.5,582.7L603.5,582.7z M395.4,356.5
	c4.5,0,18,1.3,52.7,1.3c32.9,0,59-0.9,91-0.9c39.2,0,93.3,14,93.3,72.5c0,28.8-20.3,51.8-46.9,63.1c-1.3,0.4-1.3,1.3,0,1.8
	c37.8,9.5,71.2,32.9,71.2,77.1c0,43.3-27,70.7-66.2,87.9c-23.9,10.4-53.6,14-83.8,14c-23,0-84.7-2.7-119-1.8
	c-3.6-1.4,3.2-17.6,6.3-20.3c8.1-0.5,14.4-0.9,23-3.6c12.2-3.1,13.5-6.8,15.3-25.2c0.9-15.8,0.9-71.7,0.9-111.3
	c0-54.5,0.5-91.5,0-109.5c-0.4-14-5.4-18.5-15.3-21.2c-7.7-1.3-20.3-3.2-30.6-4.5C385,373.6,392.7,358.3,395.4,356.5L395.4,356.5z
	 M135.4,636.8c10.8,8.6,32,12.2,50.9,12.2c24.3,0,48.7-4.5,72.1-25.7c23.9-21.6,40.6-55,40.6-108.1c0-50.9-19.4-92.4-59-116.7
	c-22.5-14-51.4-19.8-84.7-19.8c-9.9,0-19.4,0.4-25.2,3.1c-1.4,0.9-4.5,5-4.5,7.2c-0.9,9-0.9,78.4-0.9,119c0,41.9,0,100.5,0.9,107.2
	C125.5,621.9,128.6,632.3,135.4,636.8L135.4,636.8z M33.1,356.5c8.6,0,41.5,1.4,57.2,1.4c28.4,0,48.7-1.3,102.3-1.3
	c45.1,0,82.9,12.2,109.9,35.1c32.9,28.4,50,67.6,50,115.4c0,68-31.1,107.2-62.2,129.8c-31.1,23-71.6,36.5-129.3,36.5
	c-30.6,0-83.4-0.9-127.1-1.4h-0.4c-2.3-4.1,3.6-19.8,7.2-20.3c11.7-1.4,14.9-1.8,20.7-4.1c9.5-3.6,11.3-8.6,12.6-25.2
	c1.3-31.1,0.9-68.5,0.9-110.8c0-30.2,0.4-89.2-0.5-108.1c-1.3-15.8-8.1-19.8-21.6-22.5c-6.8-1.3-15.8-3.2-28.4-4.5
	C22.7,373.2,30.8,359.2,33.1,356.5L33.1,356.5z"/>
<g id="leaf">
	<path style="fill:#A6A385;" d="M366.2,612.4c-18-8.4-23.3-47.6-24.2-84.2c-3.6,45.4-8.7,78.5-13.7,90.1c0,0-0.7-0.5-2-1.4
		c12.7,29.7,11.5,80.3,11.5,80.3l18.5,6.3c0,0-3.6-49.6,1.8-73c1.5-7.3,5.2-13.7,9.5-19C366.7,612.1,366.2,612.4,366.2,612.4
		L366.2,612.4z"/>
	<path style="fill:#499D4A;" d="M490.1,284.8C453.6,124,367.5,71.3,358.1,51c-10.4-14.4-20.3-39.6-20.3-39.6v1.1
		c3.4,14.7,5.2,67.5,6.2,127c1.4,86.6,1.2,187.5,1.9,206.6c2.1,67.3,0,132.1-3.9,182.1c0.9,36.7,6.2,75.8,24.2,84.2l0,0
		c0,0,0.5-0.3,1.4-1c3.2-2.2,11.5-8.4,22.5-18.4c0.3-0.3,0.6-0.5,0.8-0.8C434.7,552,518.5,450.7,490.1,284.8z"/>
	<path style="fill:#58AA50;" d="M342,528.2c4-50,6-114.8,3.9-182.1c-0.8-19.1-0.5-120-1.9-206.6c-1-59.6-2.7-112.3-6.2-127
		c-0.3-1.3-0.6-2.2-0.9-2.9C336,24,335.6,29.4,322,43.8C301.3,60,194,149.7,185.5,332.2c-8.4,170.1,123,271.7,140.8,284.7
		c1.3,0.9,2,1.4,2,1.4C333.3,606.7,338.4,573.6,342,528.2z"/>
</g>
</svg>
