<svg id="Layer_1" data-name="Layer 1" xmlns="http://www.w3.org/2000/svg" viewBox="0 0 78.53 84.64"><defs><style>.cls-1{fill:#007a33;}.cls-2{fill:#215732;}.cls-3{fill:#009639;}.cls-4{fill:#fff;}</style></defs><title>logo-suite-rgb-source-03-final-size</title><path class="cls-1" d="M39.26,42.32l22,12.7a2.5,2.5,0,0,1-1,.95h0L40.57,67.36a2.61,2.61,0,0,1-1.31.35A2.67,2.67,0,0,1,38,67.36h0L18.24,56a2.6,2.6,0,0,1-1-.95Z"/><path class="cls-2" d="M39.26,42.32V16.93a2.61,2.61,0,0,1,1.31.35h0L60.29,28.67a2.53,2.53,0,0,1,1,1,2.58,2.58,0,0,1,.35,1.31h0V53.71A2.63,2.63,0,0,1,61.25,55L46,46.21l-.5.15-.63-.81Z"/><path class="cls-3" d="M39.26,42.32V16.93a2.67,2.67,0,0,0-1.31.35h0L18.24,28.67a2.55,2.55,0,0,0-1,1,2.47,2.47,0,0,0-.34,1.31h0V53.71A2.52,2.52,0,0,0,17.27,55Z"/><path class="cls-4" d="M33,51a2.54,2.54,0,0,1-5.07,0h0V33.58a2.64,2.64,0,0,1,2.88-2.46,4.54,4.54,0,0,1,3.46,1.54l.76.92,10.6,12.68V33.65h0a2.54,2.54,0,0,1,5.07,0h0V51.06a2.64,2.64,0,0,1-2.87,2.46A4.53,4.53,0,0,1,44.31,52L33,38.38V51Z"/></svg>