<svg id="Layer_1" data-name="Layer 1" xmlns="http://www.w3.org/2000/svg" viewBox="0 0 78.53 84.64"><defs><style>.cls-1{fill:none;}.cls-2{fill:#009639;}</style></defs><title>NGINX-icon-outline-hex-RGB</title><path class="cls-1" d="M39.27,66.86a1.71,1.71,0,0,1-.88-.24L18.66,55.24a1.84,1.84,0,0,1-.65-.65,1.81,1.81,0,0,1-.23-.88V30.94a1.84,1.84,0,0,1,.23-.89,1.74,1.74,0,0,1,.65-.64L38.38,18a1.75,1.75,0,0,1,.89-.24,1.65,1.65,0,0,1,.87.24L59.86,29.4a1.74,1.74,0,0,1,.89,1.53V53.7a1.84,1.84,0,0,1-.23.89,1.74,1.74,0,0,1-.65.64L40.15,66.62A1.71,1.71,0,0,1,39.27,66.86Z"/><path class="cls-2" d="M39.27,18.63a.79.79,0,0,1,.45.13L59.45,30.15a.92.92,0,0,1,.33.32.89.89,0,0,1,.12.45v1.15h0V53.72a.86.86,0,0,1-.12.44.92.92,0,0,1-.34.34L39.71,65.89a.89.89,0,0,1-.91,0L19.08,54.49a.86.86,0,0,1-.45-.79V32.08h0V30.92a.89.89,0,0,1,.12-.45,1,1,0,0,1,.34-.33L38.82,18.75a.89.89,0,0,1,.45-.12m0-1.7a2.62,2.62,0,0,0-1.31.35h0L18.24,28.67a2.61,2.61,0,0,0-1,.95,2.66,2.66,0,0,0-.35,1.32h0V53.7a2.6,2.6,0,0,0,.39,1.3h0a2.54,2.54,0,0,0,1,1L38,67.35h0a2.53,2.53,0,0,0,1.31.36,2.63,2.63,0,0,0,1.31-.36L60.29,56h0a2.54,2.54,0,0,0,1-1h0a2.56,2.56,0,0,0,.35-1.32V30.94h0a2.66,2.66,0,0,0-.35-1.32,2.61,2.61,0,0,0-1-.95L40.57,17.28h0A2.59,2.59,0,0,0,39.27,16.93Z"/><path class="cls-2" d="M33,51a2.54,2.54,0,0,1-5.07,0h0V33.58a2.64,2.64,0,0,1,2.8-2.47h.08a4.5,4.5,0,0,1,3.46,1.54l.76.92,10.6,12.68V33.65h0a2.54,2.54,0,0,1,5.07,0h0V51.06a2.64,2.64,0,0,1-2.8,2.47h-.07A4.5,4.5,0,0,1,44.31,52L33,38.38Z"/></svg>