<?xml version="1.0" encoding="UTF-8"?>
<svg width="254px" height="59px" viewBox="0 0 254 59" version="1.1" xmlns="http://www.w3.org/2000/svg" xmlns:xlink="http://www.w3.org/1999/xlink">
    <!-- Generator: sketchtool 51.2 (57519) - http://www.bohemiancoding.com/sketch -->
    <title>87D41205-9CAE-4A03-A1BB-42BEB403390A</title>
    <desc>Created with sketchtool.</desc>
    <defs></defs>
    <g id="Page-1" stroke="none" stroke-width="1" fill="none" fill-rule="evenodd">
        <g id="01-kiosk_sample" transform="translate(-30.000000, -24.000000)">
            <g id="header">
                <g id="symbols/branding/vb-logo" transform="translate(30.000000, 24.000000)">
                    <g id="Group-14">
                        <path d="M14.9693958,44.4483265 L44.2076216,44.4483265 L44.2076216,14.6021504 L14.9693958,14.6021504 L14.9693958,44.4483265 Z M29.5001705,0 C13.2097952,0 0,13.2068732 0,29.5013642 C0,45.7931268 13.2097952,59 29.5001705,59 C45.7925923,59 59,45.7931268 59,29.5013642 C59,13.2068732 45.7925923,0 29.5001705,0 Z" id="Fill-1" fill="#3688C8"></path>
                        <path d="M38,29.0037518 C38,33.9701747 33.9759771,38 28.9950552,38 C24.0291382,38 20,33.9701747 20,29.0037518 C20,24.0294842 24.0291382,20 28.9950552,20 C33.9759771,20 38,24.0294842 38,29.0037518" id="Fill-3" fill="#353D47"></path>
                        <path d="M95,24.5741884 L88.3845728,42.3319681 C87.9915771,43.3566715 87.4822121,43.9001832 86.8408512,43.9570544 C86.2058074,44.0261853 85.6163139,44.0135851 85.0550815,43.9066536 C84.5058185,43.8184521 83.9964535,43.2875407 83.5422808,42.3319681 L77,24.5428582 C77,22.8455761 77.8195722,22 79.4487421,22 C80.4827663,22 81.148731,22.298659 81.4522886,22.892912 C81.7498615,23.4806947 83.2723041,28.0000829 86.0216114,36.4483521 C88.7403303,28.0000829 90.2654328,23.4898895 90.605896,22.9181125 C90.9403746,22.3395245 91.6063394,22.0378006 92.600798,22 C94.1993794,22 95,22.8551114 95,24.5741884" id="Fill-4" fill="#353D47"></path>
                        <path d="M100.928484,15.3235057 C100.509479,15.5424995 100.180544,15.8436589 99.9445608,16.2658321 C99.704975,16.6718472 99.585002,17.1002086 99.585002,17.5412903 C99.585002,17.9727458 99.704975,18.394919 99.9445608,18.7944022 C100.180544,19.2004173 100.502633,19.5115466 100.915153,19.7367285 C101.327313,19.9560661 101.763251,20.0667662 102.219004,20.0667662 C102.664309,20.0667662 103.103129,19.9560661 103.522134,19.7367285 C103.944382,19.5115466 104.263589,19.2004173 104.499932,18.7944022 C104.72943,18.394919 104.838955,17.9727458 104.838955,17.5412903 C104.838955,17.1002086 104.72943,16.6718472 104.489484,16.2658321 C104.257104,15.8436589 103.927809,15.5424995 103.509164,15.3235057 C103.089799,15.1110439 102.661067,15 102.219004,15 C101.776581,15 101.341003,15.1110439 100.928484,15.3235057 M102.340778,44 C100.541904,44 99.6087804,43.1367451 99.6087804,41.4078289 L99.6087804,26.9645541 C97.8117073,26.9645541 96.9801826,26.1367096 97.0003583,24.489959 C97.0003583,22.7603552 97.9169088,21.8785357 99.6858802,21.8469071 L102.339698,21.8087465 C104.111551,21.8469071 105,22.7036299 105,24.3881974 L105,41.4078289 C105,43.1367451 104.083449,44 102.340778,44" id="Fill-5" fill="#353D47"></path>
                        <path d="M121.518938,27.0822806 L114.698524,27.0822806 C112.971019,27.0822806 112.099481,27.658928 112.099481,28.818368 C112.099481,29.8962103 112.971019,30.4411062 114.71444,30.4411062 L116.365483,30.4411062 C121.442475,30.5169 123.977857,32.7825196 123.965055,37.218846 C123.939799,41.7309662 121.413758,43.9935131 116.365483,44 L109.477603,43.9873677 C107.839361,44 107.012455,43.2150905 107,41.6428815 C107.012455,39.8815295 107.826905,38.9962445 109.465147,38.9836122 L116.336766,38.9836122 C118.019294,38.9836122 118.872148,38.4100376 118.900865,37.2567429 C118.900865,36.137931 118.057698,35.5646978 116.378284,35.5394333 L114.736583,35.5394333 C109.599043,35.5646978 107.034945,33.2803004 107.047746,28.7050188 C107.025257,24.2372823 109.547838,22 114.647665,22 L121.452162,22.0122909 C123.147838,22.0122909 124,22.8504609 124,24.5237282 C123.965055,26.1969956 123.135036,27.0508706 121.518938,27.0822806" id="Fill-6" fill="#353D47"></path>
                        <path d="M129.987206,15.3235057 C129.565931,15.5424995 129.241734,15.8436589 129.004473,16.2658321 C128.763589,16.6718472 128.643691,17.1002086 128.643691,17.5412903 C128.643691,17.9727458 128.763589,18.394919 129.004473,18.7944022 C129.241734,19.2004173 129.562671,19.5115466 129.987206,19.7367285 C130.395078,19.9560661 130.836637,20.0667662 131.298119,20.0667662 C131.745475,20.0667662 132.183412,19.9560661 132.598166,19.7367285 C133.019441,19.5115466 133.353418,19.2004173 133.584521,18.7944022 C133.80512,18.394919 133.932263,17.9727458 133.932263,17.5412903 C133.932263,17.1002086 133.80512,16.6718472 133.578001,16.2658321 C133.340377,15.8436589 133.006038,15.5424995 132.584764,15.3235057 C132.167111,15.1110439 131.732434,15 131.298119,15 C130.842795,15 130.412102,15.1110439 129.987206,15.3235057 M131.323113,44 C129.521377,44 128.579576,43.1367451 128.579576,41.4078289 L128.579576,26.9645541 C126.772768,26.9645541 125.977309,26.1367096 126.000492,24.489959 C126.000492,22.7603552 126.944103,21.8785357 128.722657,21.8469071 L131.36151,21.8087465 C133.136441,21.8469071 134,22.7036299 134,24.3881974 L134,41.4078289 C134,43.1367451 133.075224,44 131.323113,44" id="Fill-7" fill="#353D47"></path>
                        <path d="M143.507126,27.0769231 C141.825909,27.0769231 141.181818,27.8474184 141.181818,29.5163161 L141.181818,36.1735858 C141.181818,37.8988033 141.825909,38.9230769 143.507126,38.9230769 L146.945743,38.9230769 C148.668514,38.9230769 149.818182,37.8988033 149.818182,36.1735858 L149.818182,29.4474431 C149.818182,27.8226513 148.668514,27.0769231 146.945743,27.0769231 L143.507126,27.0769231 Z M143.772727,22 L146.945743,22 C152.065576,22 155,24.4502498 155,29.5163161 L155,36.0701067 C155,41.2365986 152.078388,44 146.977601,44 L143.491197,44 C138.419151,44 136,41.2929184 136,36.2394053 L136,29.5292086 C136,24.4624638 138.441314,22 143.561493,22 L143.772727,22 Z" id="Fill-8" fill="#353D47"></path>
                        <path d="M157,41.3922972 L157,24.5194274 C157,22.8490116 157.813405,22.0122699 159.452187,22.0122699 L167.646763,22 C172.547813,22 175,24.5916837 175,29.7883436 L175,41.4584185 C175,43.1601909 174.177616,44 172.547813,44 C170.915349,44 170.101944,43.1414451 170.101944,41.4267212 L170.101944,29.6782549 C170.101944,27.9481936 169.267255,27.0736196 167.619162,27.0736196 L161.898389,27.0736196 L161.898389,41.3922972 C161.898389,43.1066803 161.07268,43.9625085 159.415275,43.9625085 C157.803761,43.9625085 157,43.1066803 157,41.3922972" id="Fill-9" fill="#353D47"></path>
                        <path d="M191.999484,30.514288 C192.027037,32.1764044 190.951465,33 188.767456,33 L182.210782,33 C180.078228,32.9718458 179.012283,32.1390916 179,30.514288 C179.042824,28.8206254 180.112088,27.9783734 182.210782,28.0004219 L188.767456,28.0004219 C190.951465,27.9783734 192.027037,28.8206254 191.999484,30.514288" id="Fill-10" fill="#353D47"></path>
                        <path d="M206.214114,38.894395 C207.943464,38.894395 208.818182,37.9335969 208.818182,36.292802 L208.818182,29.5167184 C208.818182,27.7783425 207.943464,26.9813168 206.214114,26.9813168 L200.181818,26.9813168 L200.181818,38.894395 L206.214114,38.894395 Z M195,41.4471975 L195,17.5224363 C195,15.8410396 195.889262,15 197.595757,15 C199.295673,15 200.181818,15.8659466 200.181818,17.5947692 L200.181818,21.8757118 L206.249435,21.8757118 C211.353339,21.8757118 214,24.4247612 214,29.6269236 L214,36.2300226 C214,41.3093557 211.346759,44 206.214114,44 L197.677827,44 C196.000073,44 195,42.9941644 195,41.2776248 L195,41.4471975 Z" id="Fill-11" fill="#353D47"></path>
                        <path d="M223.241723,27.0769231 C221.573491,27.0769231 221.142857,27.8474184 221.142857,29.5163161 L221.142857,36.1735858 C221.142857,37.8988033 221.573491,38.9230769 223.241723,38.9230769 L226.651392,38.9230769 C228.36121,38.9230769 228.857143,37.8988033 228.857143,36.1735858 L228.857143,29.4474431 C228.857143,27.8226513 228.36121,27.0769231 226.651392,27.0769231 L223.241723,27.0769231 Z M223.714286,22 L226.651392,22 C231.73926,22 234,24.4502498 234,29.5163161 L234,36.0701067 C234,41.2365986 231.74579,44 226.677168,44 L223.226257,44 C218.185817,44 216,41.2929184 216,36.2394053 L216,29.5292086 C216,24.4624638 218.21125,22 223.292588,22 L223.714286,22 Z" id="Fill-12" fill="#353D47"></path>
                        <path d="M253.216043,39.5615897 L248.146288,32.9637394 L253.20362,26.3845857 C254.306544,25.0829644 254.257189,23.8877435 253.036083,22.7894049 C251.787446,21.659792 250.613345,21.741717 249.48524,23.0402789 L245.001361,28.8821078 L240.511774,23.0402789 C239.395756,21.741717 238.205874,21.659792 236.951194,22.7894049 C235.745532,23.8877435 235.693156,25.0829644 236.80548,26.3845857 L241.859455,32.9698583 L236.787014,39.5615897 C235.680733,40.8479139 235.745532,42.0652307 236.951194,43.2291773 C238.205874,44.3271759 239.371247,44.2551091 240.449325,42.9939404 L244.995317,37.0705265 L249.537616,42.9939404 C250.619388,44.2551091 251.79349,44.3271759 253.048842,43.2291773 C254.260211,42.0652307 254.312923,40.8479139 253.216043,39.5615897" id="Fill-13" fill="#353D47"></path>
                    </g>
                </g>
            </g>
        </g>
    </g>
</svg>