<svg xmlns="http://www.w3.org/2000/svg" viewBox="0 0 178.8 108"><defs><style>.a{fill:#a1cd3a;}.b{fill:#000002;}</style></defs><title>Live8</title><path class="a" d="M137.9,93.5a16.5,16.5,0,1,1,0-32.9,16.5,16.5,0,1,1,0,32.9Zm30.4-16.4a30.4,30.4,0,1,0-30.4,30.4A30.2,30.2,0,0,0,168.3,77.1Z"/><path class="a" d="M137.9,46.9a16.5,16.5,0,1,1,16.6-16.4A16.5,16.5,0,0,1,137.9,46.9Zm30.4-16.4a30.4,30.4,0,1,0-30.4,30.3A30.3,30.3,0,0,0,168.3,30.5Z"/><rect class="b" x="40.2" y="32.5" width="14.3" height="14.31"/><polygon class="b" points="112.3 46.5 81.7 87.1 81.7 46.5 65.5 46.5 59.3 56.5 67.5 56.5 67.5 107.7 85.8 107.7 128.6 46.5 112.3 46.5"/><path class="b" d="M40.2,93.7H36.7v.2a13.5,13.5,0,0,1-5.6-1.3,17.4,17.4,0,0,1-4.6-3A20.6,20.6,0,0,1,23.4,85a15.4,15.4,0,0,1-1-5.6V32.5H16.1v-.2H5.9L0,42.5H8.1V79.4a28.4,28.4,0,0,0,2.3,11.2,25.2,25.2,0,0,0,6.1,9,26.1,26.1,0,0,0,9.1,6.3A27.4,27.4,0,0,0,36.7,108h8.2v-.2h9.6V51.2H40.2Z"/><path class="b" d="M178.8,83.2a27.2,27.2,0,0,1-3.8,9.9,26.1,26.1,0,0,1-6.7,7.7,27.6,27.6,0,0,1-9,5.2,29.7,29.7,0,0,1-10.5,1.8,28.6,28.6,0,0,1-12-2.4,33,33,0,0,1-9.7-6.5,29.7,29.7,0,0,1-6.6-9.8,28.9,28.9,0,0,1-2.4-12,27.5,27.5,0,0,1,2.4-11.9,28.7,28.7,0,0,1,6.6-9.8,30.1,30.1,0,0,1,9.7-6.7,32,32,0,0,1,12-2.3,30.2,30.2,0,0,1,9,1.4,32.7,32.7,0,0,1,8,3.8,29.5,29.5,0,0,1,6.5,5.8,37.6,37.6,0,0,1,4.6,7.5,7.7,7.7,0,0,1,.7,1.7L176.1,69l-5,8.1H152l7.5-12.2a13.8,13.8,0,0,0-4.9-3,14.4,14.4,0,0,0-5.8-1.3,15.3,15.3,0,0,0-6.4,1.4,17,17,0,0,0-5.2,3.5,16.4,16.4,0,0,0-4.8,11.6,15.3,15.3,0,0,0,1.3,6.4,16.3,16.3,0,0,0,8.7,8.7,15.3,15.3,0,0,0,6.4,1.4,14.8,14.8,0,0,0,9.2-2.9,16.7,16.7,0,0,0,5.9-7.5Z"/></svg>